HIERARCHY
ROOT Hips
{
	OFFSET 0.00000 0.00000 0.00000
	CHANNELS 6 Xposition Yposition Zposition Zrotation Yrotation Xrotation 
	JOINT LHipJoint
	{
		OFFSET 0 0 0
		CHANNELS 3 Zrotation Yrotation Xrotation
		JOINT LeftUpLeg
		{
			OFFSET 1.82298 -1.58346 0.87084
			CHANNELS 3 Zrotation Yrotation Xrotation
			JOINT LeftLeg
			{
				OFFSET 2.43790 -6.69809 0.00000
				CHANNELS 3 Zrotation Yrotation Xrotation
				JOINT LeftFoot
				{
					OFFSET 2.59288 -7.12389 0.00000
					CHANNELS 3 Zrotation Yrotation Xrotation
					JOINT LeftToeBase
					{
						OFFSET 0.14552 -0.39981 2.13160
						CHANNELS 3 Zrotation Yrotation Xrotation
						End Site
						{
							OFFSET 0.00000 -0.00000 1.09427
						}
					}
				}
			}
		}
	}
	JOINT RHipJoint
	{
		OFFSET 0 0 0
		CHANNELS 3 Zrotation Yrotation Xrotation
		JOINT RightUpLeg
		{
			OFFSET -1.77229 -1.58346 0.87084
			CHANNELS 3 Zrotation Yrotation Xrotation
			JOINT RightLeg
			{
				OFFSET -2.50703 -6.88801 0.00000
				CHANNELS 3 Zrotation Yrotation Xrotation
				JOINT RightFoot
				{
					OFFSET -2.61620 -7.18796 0.00000
					CHANNELS 3 Zrotation Yrotation Xrotation
					JOINT RightToeBase
					{
						OFFSET -0.15190 -0.41735 2.15974
						CHANNELS 3 Zrotation Yrotation Xrotation
						End Site
						{
							OFFSET -0.00000 -0.00000 1.10919
						}
					}
				}
			}
		}
	}
	JOINT LowerBack
	{
		OFFSET 0 0 0
		CHANNELS 3 Zrotation Yrotation Xrotation
		JOINT Spine
		{
			OFFSET -0.03602 2.12423 -0.30249
			CHANNELS 3 Zrotation Yrotation Xrotation
			JOINT Spine1
			{
				OFFSET 0.02717 2.10043 0.12912
				CHANNELS 3 Zrotation Yrotation Xrotation
				JOINT Neck
				{
					OFFSET 0 0 0
					CHANNELS 3 Zrotation Yrotation Xrotation
					JOINT Neck1
					{
						OFFSET -0.06371 1.88656 0.11602
						CHANNELS 3 Zrotation Yrotation Xrotation
						JOINT Head
						{
							OFFSET 0.08208 1.87759 -0.11505
							CHANNELS 3 Zrotation Yrotation Xrotation
							End Site
							{
								OFFSET 0.03382 1.93090 -0.05483
							}
						}
					}
				}
				JOINT LeftShoulder
				{
					OFFSET 0 0 0
					CHANNELS 3 Zrotation Yrotation Xrotation
					JOINT LeftArm
					{
						OFFSET 3.30903 1.40357 0.20156
						CHANNELS 3 Zrotation Yrotation Xrotation
						JOINT LeftForeArm
						{
							OFFSET 5.43301 -0.00000 0.00000
							CHANNELS 3 Zrotation Yrotation Xrotation
							JOINT LeftHand
							{
								OFFSET 3.15936 -0.00000 0.00000
								CHANNELS 3 Zrotation Yrotation Xrotation
								JOINT LeftFingerBase
								{
									OFFSET 0 0 0
									CHANNELS 3 Zrotation Yrotation Xrotation
									JOINT LeftHandIndex1
									{
										OFFSET 0.71283 -0.00000 0.00000
										CHANNELS 3 Zrotation Yrotation Xrotation
										End Site
										{
											OFFSET 0.57470 -0.00000 0.00000
										}
									}
								}
								JOINT LThumb
								{
									OFFSET 0 0 0
									CHANNELS 3 Zrotation Yrotation Xrotation
									End Site
									{
										OFFSET 0.58347 -0.00000 0.58347
									}
								}
							}
						}
					}
				}
				JOINT RightShoulder
				{
					OFFSET 0 0 0
					CHANNELS 3 Zrotation Yrotation Xrotation
					JOINT RightArm
					{
						OFFSET -3.12947 1.60037 -0.00464
						CHANNELS 3 Zrotation Yrotation Xrotation
						JOINT RightForeArm
						{
							OFFSET -5.34194 -0.00000 0.00000
							CHANNELS 3 Zrotation Yrotation Xrotation
							JOINT RightHand
							{
								OFFSET -3.19351 -0.00000 0.00000
								CHANNELS 3 Zrotation Yrotation Xrotation
								JOINT RightFingerBase
								{
									OFFSET 0 0 0
									CHANNELS 3 Zrotation Yrotation Xrotation
									JOINT RightHandIndex1
									{
										OFFSET -0.74386 -0.00000 0.00000
										CHANNELS 3 Zrotation Yrotation Xrotation
										End Site
										{
											OFFSET -0.59972 -0.00000 0.00000
										}
									}
								}
								JOINT RThumb
								{
									OFFSET 0 0 0
									CHANNELS 3 Zrotation Yrotation Xrotation
									End Site
									{
										OFFSET -0.60888 -0.00000 0.60888
									}
								}
							}
						}
					}
				}
			}
		}
	}
}
MOTION
Frames: 13
Frame Time: .0083333
-6.668 17.0039 -24.0325 0 0 0 0 0 0 -21 0 0 0 0 0 0 0 0 0 0 0 0 0 0 21 0 0 0 0 0 0 0 0 0 0 0 0 0 0 0 0 0 0 0 0 0 0 -16 0 0 21 0 0 11 0 0 0 -8 0 0 0 0 0 0 0 0 0 0 0 0 0 0 0 0 0 0 0 0 8 0 0 0 0 0 0 0 0 0 0 0 0 0 0 0 0 0
-6.6680 17.0039 -24.0325 -0.9038 0.1261 4.4611 0.0000 0.0000 0.0000 -13.4725 -10.3765 -12.6510 3.1787 10.9788 32.2084 0.9455 3.8321 -20.1346 0.1085 -2.1242 -5.8491 0.0000 0.0000 0.0000 15.2487 11.7736 -14.9197 -4.4235 -12.7036 38.2688 -0.8363 -6.2992 -20.6760 -0.3789 3.9533 -10.9452 -3.5111 1.8893 5.8857 0.7518 2.2708 -3.1775 2.4900 1.2961 -6.8017 -4.7643 -3.1593 -6.2901 5.6517 -4.4289 11.4331 2.2575 -2.0529 4.6869 -0.0000 -0.0000 0.0000 -85.7170 -0.0073 37.7961 13.0542 -21.3666 -2.4730 -0.0000 -0.0000 22.5877 25.9976 24.1814 11.2971 -7.1250 0.0000 -0.0000 -3.7055 56.4871 -1.0446 -0.0000 -0.0000 0.0000 80.0822 -9.8004 32.5365 -19.1609 29.6181 -5.1101 0.0000 0.0000 4.0202 -14.5805 -34.5112 8.3835 7.1250 -0.0000 -0.0000 23.0544 -63.9350 -10.8628
-6.6687 17.0021 -24.0337 -0.8974 0.1241 4.4578 0.0000 0.0000 0.0000 -13.4740 -10.3745 -12.6748 3.1865 10.9910 32.2496 0.9449 3.8402 -20.1330 0.1118 -2.1560 -5.9370 0.0000 0.0000 0.0000 15.2415 11.7653 -14.9471 -4.4316 -12.7135 38.3054 -0.8346 -6.3113 -20.6684 -0.3879 3.9993 -11.0748 -3.5062 1.8843 5.9154 0.7580 2.2640 -3.1628 2.4940 1.2924 -6.8027 -4.7285 -3.1656 -6.3337 5.6081 -4.4347 11.4402 2.2371 -2.0560 4.6951 -0.0000 -0.0000 0.0000 -85.7141 -0.0579 37.8134 13.0546 -21.3671 -2.4731 -0.0000 -0.0000 22.5634 25.9771 24.2491 11.3160 -7.1250 0.0000 -0.0000 -3.7513 56.5547 -1.0637 -0.0000 -0.0000 0.0000 80.0646 -9.7041 32.5251 -19.1285 29.5780 -5.0941 0.0000 0.0000 4.0212 -14.5861 -34.5487 8.3947 7.1250 -0.0000 -0.0000 23.0866 -63.9704 -10.8978
-6.6695 17.0014 -24.0334 -0.9050 0.1095 4.4559 0.0000 0.0000 0.0000 -13.4624 -10.3578 -12.6867 3.1902 10.9968 32.2691 0.9473 3.8218 -20.1454 0.1123 -2.1611 -5.9511 0.0000 0.0000 0.0000 15.2480 11.7478 -14.9751 -4.4400 -12.7240 38.3439 -0.8398 -6.2708 -20.6886 -0.3815 3.9669 -10.9836 -3.4791 1.8918 5.9384 0.7630 2.2762 -3.1410 2.4822 1.2968 -6.7927 -4.6929 -3.1930 -6.4284 5.5683 -4.4687 11.4725 2.2153 -2.0717 4.7212 -0.0000 0.0000 0.0000 -85.7061 -0.1286 37.8591 13.0479 -21.3574 -2.4707 -0.0000 -0.0000 22.5234 25.9650 24.2283 11.3013 -7.1250 0.0000 -0.0000 -3.7571 56.5301 -1.0631 -0.0000 0.0000 0.0000 80.0520 -9.6784 32.4889 -19.1491 29.6035 -5.1043 0.0000 0.0000 4.0415 -14.4429 -34.6424 8.3294 7.1250 -0.0000 -0.0000 23.3406 -64.0163 -11.0491
-6.6707 17.0003 -24.0341 -0.8800 0.1000 4.4470 0.0000 0.0000 0.0000 -13.4871 -10.3555 -12.6864 3.1932 11.0014 32.2846 0.9472 3.8399 -20.1542 0.1117 -2.1546 -5.9332 0.0000 0.0000 0.0000 15.2222 11.7398 -14.9969 -4.4498 -12.7360 38.3881 -0.8398 -6.2708 -20.6889 -0.3876 3.9980 -11.0711 -3.4738 1.8982 5.9727 0.7437 2.2827 -3.1287 2.4573 1.2992 -6.7987 -4.6634 -3.2093 -6.4635 5.5843 -4.4951 11.4823 2.2132 -2.0818 4.7312 -0.0000 -0.0000 0.0000 -85.6714 -0.1705 37.8894 13.0464 -21.3551 -2.4702 -0.0000 -0.0000 22.5421 26.0171 24.2583 11.3395 -7.1250 0.0000 -0.0000 -3.7110 56.5732 -1.0539 -0.0000 -0.0000 0.0000 80.0764 -9.6374 32.4338 -19.1443 29.5976 -5.1019 0.0000 0.0000 4.0443 -14.4795 -34.5890 8.3400 7.1250 -0.0000 -0.0000 23.2453 -63.9781 -10.9809
-6.6723 16.9985 -24.0352 -0.8538 0.0739 4.4302 0.0000 0.0000 0.0000 -13.5127 -10.3277 -12.6781 3.1951 11.0044 32.2946 0.9474 3.8430 -20.1581 0.1126 -2.1635 -5.9578 0.0000 0.0000 0.0000 15.1986 11.7420 -15.0096 -4.4592 -12.7476 38.4309 -0.8433 -6.2376 -20.6980 -0.3853 3.9862 -11.0378 -3.5070 1.8937 6.0307 0.7606 2.2729 -3.1228 2.4934 1.2966 -6.8274 -4.6674 -3.2017 -6.4669 5.5532 -4.4794 11.4581 2.2052 -2.0762 4.7230 -0.0000 0.0000 0.0000 -85.6968 -0.1747 37.8630 13.0525 -21.3641 -2.4724 -0.0000 -0.0000 22.5340 26.0488 24.2609 11.3561 -7.1250 0.0000 -0.0000 -3.6774 56.5828 -1.0452 -0.0000 0.0000 0.0000 80.0468 -9.5363 32.4392 -19.0974 29.5395 -5.0788 0.0000 0.0000 4.0412 -14.6035 -34.5845 8.4126 7.1250 -0.0000 -0.0000 23.1043 -64.0073 -10.9265
-6.6738 16.9975 -24.0356 -0.8308 0.0552 4.4179 0.0000 0.0000 0.0000 -13.5343 -10.3082 -12.6672 3.1955 11.0049 32.2965 0.9491 3.8276 -20.1660 0.1126 -2.1635 -5.9577 0.0000 0.0000 0.0000 15.1761 11.7299 -15.0323 -4.4694 -12.7601 38.4771 -0.8461 -6.2135 -20.7074 -0.3888 4.0041 -11.0881 -3.5170 1.8975 6.0375 0.7621 2.2770 -3.1134 2.5000 1.2988 -6.8223 -4.6457 -3.2110 -6.3845 5.5260 -4.4909 11.3839 2.1938 -2.0844 4.6859 0.0000 0.0000 0.0000 -85.6981 -0.1872 37.8717 13.0520 -21.3634 -2.4722 -0.0000 -0.0000 22.5379 26.0267 24.2769 11.3522 -7.1250 0.0000 -0.0000 -3.7070 56.5951 -1.0547 0.0000 0.0000 0.0000 80.0471 -9.5084 32.3576 -19.0744 29.5111 -5.0675 0.0000 0.0000 4.1386 -14.4351 -34.6542 8.3272 7.1250 -0.0000 -0.0000 23.3615 -64.0249 -11.0642
-6.6751 16.9967 -24.0362 -0.8170 0.0397 4.4105 0.0000 0.0000 0.0000 -13.5466 -10.2808 -12.6708 3.1965 11.0066 32.3022 0.9500 3.8171 -20.1685 0.1130 -2.1672 -5.9680 0.0000 0.0000 0.0000 15.1584 11.7082 -15.0586 -4.4787 -12.7715 38.5189 -0.8489 -6.1714 -20.7044 -0.3856 3.9876 -11.0417 -3.5132 1.8988 6.0519 0.7697 2.2793 -3.0881 2.5056 1.2993 -6.8039 -4.7002 -3.2129 -6.4213 5.5951 -4.4943 11.3772 2.2234 -2.0838 4.6929 -0.0000 -0.0000 0.0000 -85.7103 -0.2263 37.8688 13.0519 -21.3632 -2.4722 -0.0000 -0.0000 22.5281 26.0832 24.2236 11.3570 -7.1250 0.0000 -0.0000 -3.6270 56.5507 -1.0280 -0.0000 -0.0000 0.0000 80.0173 -9.4893 32.3589 -19.1065 29.5508 -5.0833 0.0000 0.0000 4.0789 -14.4663 -34.6061 8.3357 7.1250 -0.0000 -0.0000 23.2773 -63.9898 -11.0032
-6.6764 16.9957 -24.0358 -0.7985 0.0186 4.3954 0.0000 0.0000 0.0000 -13.5670 -10.2558 -12.6549 3.1973 11.0078 32.3063 0.9498 3.8336 -20.1757 0.1148 -2.1842 -6.0150 0.0000 0.0000 0.0000 15.1403 11.6979 -15.0691 -4.4877 -12.7826 38.5600 -0.8539 -6.1387 -20.7287 -0.3880 3.9998 -11.0761 -3.5153 1.8981 6.0743 0.7705 2.2775 -3.0712 2.5074 1.2982 -6.7989 -4.6742 -3.2199 -6.3863 5.5563 -4.5013 11.3290 2.2073 -2.0892 4.6712 0.0000 -0.0000 0.0000 -85.7208 -0.2459 37.8432 13.0612 -21.3768 -2.4756 -0.0000 -0.0000 22.4872 25.9360 24.6021 11.4462 -7.1250 0.0000 -0.0000 -3.9211 56.9203 -1.1466 0.0000 -0.0000 0.0000 80.0126 -9.4674 32.3211 -19.0992 29.5418 -5.0797 0.0000 0.0000 4.1378 -14.4547 -34.6097 8.3296 7.1250 -0.0000 -0.0000 23.2939 -63.9901 -11.0116
-6.6785 16.9946 -24.0368 -0.7906 0.0054 4.3842 0.0000 0.0000 0.0000 -13.5646 -10.2349 -12.6556 3.1991 11.0106 32.3158 0.9519 3.8001 -20.1767 0.1137 -2.1737 -5.9858 0.0000 0.0000 0.0000 15.1398 11.7095 -15.0834 -4.4962 -12.7929 38.5981 -0.8547 -6.1292 -20.7296 -0.3832 3.9754 -11.0076 -3.5222 1.8960 6.0937 0.7834 2.2744 -3.0532 2.5249 1.2969 -6.7915 -4.6525 -3.2295 -6.3344 5.5267 -4.5113 11.2423 2.1948 -2.0964 4.6353 0.0000 0.0000 0.0000 -85.7333 -0.2851 37.8352 13.0522 -21.3637 -2.4723 -0.0000 -0.0000 22.4965 25.9948 24.4973 11.4306 -7.1250 0.0000 -0.0000 -3.8194 56.8221 -1.1077 0.0000 0.0000 0.0000 79.9871 -9.4381 32.3222 -19.0966 29.5386 -5.0784 0.0000 0.0000 4.1119 -14.4894 -34.5241 8.3323 7.1250 -0.0000 -0.0000 23.1676 -63.9221 -10.9120
-6.6805 16.9936 -24.0394 -0.7724 -0.0109 4.3806 0.0000 0.0000 0.0000 -13.5705 -10.2002 -12.6807 3.2003 11.0124 32.3218 0.9500 3.7950 -20.1557 0.1140 -2.1767 -5.9942 0.0000 0.0000 0.0000 15.1226 11.7154 -15.1208 -4.5070 -12.8061 38.6470 -0.8569 -6.1066 -20.7350 -0.3822 3.9701 -10.9926 -3.5264 1.8960 6.1339 0.7816 2.2723 -3.0576 2.5244 1.2964 -6.8193 -4.5996 -3.2354 -6.3193 5.4830 -4.5208 11.2545 2.1722 -2.1015 4.6349 0.0000 0.0000 0.0000 -85.7212 -0.2977 37.8788 13.0494 -21.3596 -2.4713 -0.0000 -0.0000 22.4391 25.9200 24.5663 11.4231 -7.1250 0.0000 -0.0000 -3.9258 56.8788 -1.1440 0.0000 0.0000 0.0000 79.9795 -9.4664 32.3282 -19.1171 29.5639 -5.0885 0.0000 0.0000 4.0943 -14.2767 -34.8912 8.2817 7.1250 -0.0000 -0.0000 23.7834 -64.1951 -11.3692
-6.6825 16.9928 -24.0396 -0.7541 -0.0060 4.3646 0.0000 0.0000 0.0000 -13.5868 -10.2065 -12.6686 3.2026 11.0160 32.3337 0.9496 3.8026 -20.1563 0.1164 -2.1998 -6.0582 0.0000 0.0000 0.0000 15.1083 11.6962 -15.1350 -4.5169 -12.8182 38.6918 -0.8604 -6.0942 -20.7594 -0.3826 3.9721 -10.9981 -3.5311 1.8867 6.1626 0.7901 2.2591 -3.0499 2.5370 1.2903 -6.8274 -4.6740 -3.2248 -6.3060 5.5903 -4.5129 11.2764 2.2183 -2.0947 4.6429 0.0000 -0.0000 0.0000 -85.7222 -0.3129 37.8850 13.0411 -21.3474 -2.4682 -0.0000 -0.0000 22.4548 25.9401 24.4695 11.3919 -7.1250 0.0000 -0.0000 -3.8692 56.7806 -1.1183 0.0000 -0.0000 0.0000 79.9540 -9.4641 32.3304 -19.1266 29.5757 -5.0932 0.0000 0.0000 4.0919 -14.3023 -34.8634 8.2913 7.1250 -0.0000 -0.0000 23.7259 -64.1770 -11.3302
-6.6848 16.9914 -24.0421 -0.7087 0.0127 4.3684 0.0000 0.0000 0.0000 -13.6220 -10.2154 -12.6923 3.2043 11.0186 32.3426 0.9482 3.7990 -20.1412 0.1208 -2.2410 -6.1721 0.0000 0.0000 0.0000 15.0612 11.6660 -15.1857 -4.5277 -12.8314 38.7405 -0.8663 -6.0558 -20.7883 -0.3792 3.9548 -10.9497 -3.5592 1.8768 6.2069 0.7856 2.2412 -3.0683 2.5488 1.2836 -6.8721 -4.7030 -3.2215 -6.2980 5.6786 -4.5175 11.3038 2.2502 -2.0930 4.6527 -0.0000 -0.0000 0.0000 -85.7018 -0.3073 37.9438 13.0337 -21.3365 -2.4655 -0.0000 -0.0000 22.4669 26.0379 24.2251 11.3355 -7.1250 0.0000 -0.0000 -3.6768 56.5425 -1.0414 -0.0000 -0.0000 0.0000 79.9214 -9.5987 32.3671 -19.2056 29.6734 -5.1323 0.0000 0.0000 4.0404 -14.7322 -34.4644 8.4635 7.1250 -0.0000 -0.0000 22.8395 -63.9332 -10.7553
